<?xml version="1.0" standalone="no"?>
<!DOCTYPE svg PUBLIC "-//W3C//DTD SVG 20010904//EN"
 "http://www.w3.org/TR/2001/REC-SVG-20010904/DTD/svg10.dtd">
<svg version="1.0" xmlns="http://www.w3.org/2000/svg"
 width="721.000000pt" height="1280.000000pt" viewBox="0 0 721.000000 1280.000000"
 preserveAspectRatio="xMidYMid meet">
<metadata>
Created by potrace 1.15, written by Peter Selinger 2001-2017
</metadata>
<g transform="translate(0.000000,1280.000000) scale(0.100000,-0.100000)"
fill="#3f51b5" stroke="none">
<path d="M5037 12583 c-11 -10 -8 -91 3 -98 6 -4 10 15 10 49 0 57 -1 61 -13
49z"/>
<path d="M3605 12291 c-52 -4 -78 -12 -99 -28 -16 -13 -35 -23 -43 -23 -26 0
-25 -30 4 -77 16 -27 38 -71 48 -100 21 -59 17 -69 -47 -109 -58 -37 -58 -56
1 -120 71 -77 79 -110 52 -214 -12 -46 -21 -110 -21 -142 0 -32 -2 -58 -5 -58
-23 0 -85 35 -85 49 0 9 -10 25 -21 35 -23 20 -23 23 -3 275 9 104 3 111 -103
111 -56 0 -73 3 -73 14 0 8 -5 16 -11 18 -5 2 -14 19 -19 38 -20 84 -41 153
-50 171 -14 25 -30 24 -37 -1 -3 -11 -11 -20 -18 -20 -7 0 -18 -13 -25 -30 -7
-18 -20 -30 -30 -30 -21 0 -76 -43 -91 -72 -8 -14 -8 -23 0 -31 13 -13 15 -67
2 -67 -5 0 -17 -7 -25 -15 -13 -14 -22 -14 -58 -4 -65 18 -165 19 -179 3 -6
-8 -21 -14 -32 -14 -12 0 -35 -16 -53 -37 -30 -35 -32 -36 -55 -19 -16 11 -34
14 -55 10 -25 -4 -37 -1 -54 16 -33 33 -52 11 -44 -51 6 -48 6 -49 -21 -49
-18 0 -28 -6 -32 -20 -3 -12 -13 -19 -26 -17 -15 1 -32 -14 -63 -58 -23 -33
-43 -68 -43 -77 -1 -21 -20 -33 -32 -21 -9 9 -30 100 -30 135 0 26 -76 55
-150 59 -74 4 -104 -10 -96 -45 14 -58 61 -171 106 -257 28 -53 51 -104 51
-114 0 -9 9 -28 20 -42 11 -14 20 -39 20 -54 0 -22 5 -29 19 -29 22 0 71 -54
71 -78 -1 -9 -9 -27 -19 -39 -16 -19 -29 -23 -80 -23 -33 0 -63 5 -66 10 -3 6
-23 10 -44 10 -20 0 -43 6 -49 12 -10 10 -17 10 -32 0 -11 -6 -27 -12 -36 -12
-9 0 -47 -22 -85 -50 -38 -27 -73 -50 -79 -50 -5 0 -10 -11 -10 -24 0 -13 -7
-29 -15 -36 -11 -9 -13 -16 -5 -24 13 -13 13 -63 0 -71 -6 -3 -10 -37 -10 -75
0 -38 -4 -71 -9 -74 -33 -21 -6 -133 48 -198 31 -37 42 -90 21 -103 -31 -19 4
-111 68 -177 43 -45 162 -88 187 -68 8 7 21 10 30 7 8 -4 17 -2 20 3 11 18 42
10 70 -16 28 -25 32 -26 107 -20 73 6 78 5 78 -13 0 -11 -11 -30 -23 -43 -28
-27 -61 -128 -52 -157 4 -15 -7 -29 -52 -64 -32 -24 -69 -50 -83 -57 -14 -7
-40 -26 -57 -43 -18 -17 -54 -42 -79 -56 -61 -34 -76 -57 -49 -76 11 -8 25
-19 32 -25 7 -5 17 -10 23 -10 6 0 10 -12 8 -27 -3 -26 -7 -28 -61 -34 -32 -4
-65 -14 -75 -22 -12 -11 -42 -17 -97 -19 -77 -3 -80 -4 -84 -28 -1 -14 -6 -27
-10 -30 -4 -3 -12 -16 -18 -30 l-11 -25 -12 32 c-14 39 -33 47 -70 28 -42 -22
-60 -19 -60 9 0 12 -5 37 -11 53 -9 27 -14 30 -42 27 -18 -1 -33 -3 -35 -3 -1
-1 4 -14 13 -31 19 -36 19 -99 0 -124 -8 -10 -32 -27 -55 -37 -43 -19 -48 -30
-26 -48 13 -11 29 -51 21 -51 -20 0 -56 28 -63 49 -5 15 -16 34 -24 42 -8 8
-19 23 -25 33 -11 20 -89 49 -105 40 -4 -3 -8 -14 -8 -25 0 -13 -7 -19 -22
-19 -13 0 -32 -3 -43 -6 -14 -3 -30 4 -48 20 -51 48 -54 37 -26 -123 11 -69
11 -197 -1 -281 -5 -36 -11 -91 -15 -123 -3 -32 -10 -81 -15 -109 -17 -89 -12
-227 10 -291 11 -31 20 -63 20 -70 0 -8 15 -45 34 -83 18 -38 37 -80 41 -94 4
-14 18 -41 30 -60 13 -19 40 -87 61 -150 20 -63 42 -122 48 -130 6 -8 19 -31
28 -50 9 -19 33 -71 54 -115 l39 -80 7 -215 c9 -300 20 -358 92 -490 28 -51
103 -166 131 -200 27 -32 107 -202 165 -350 33 -85 69 -175 80 -200 60 -142
150 -383 150 -403 0 -12 -4 -27 -10 -33 -16 -16 -50 -181 -50 -243 0 -31 5
-83 11 -115 13 -72 68 -195 101 -227 24 -23 40 -49 115 -189 19 -36 52 -83 73
-105 20 -22 67 -79 104 -128 38 -48 76 -92 86 -97 27 -14 89 -105 104 -153 13
-39 27 -123 41 -242 3 -27 13 -88 21 -135 8 -47 19 -108 24 -137 14 -84 70
-341 92 -422 11 -42 23 -89 25 -106 17 -103 257 -939 293 -1020 5 -11 37 -101
71 -200 44 -128 75 -242 106 -395 44 -212 44 -217 37 -350 -3 -74 -6 -178 -5
-230 1 -74 -13 -185 -62 -495 l-64 -401 -50 -113 c-40 -90 -52 -108 -56 -89
-6 23 -21 249 -32 478 -3 69 -15 278 -26 464 l-21 340 -113 270 c-62 149 -137
336 -165 416 -29 80 -60 160 -71 178 -10 18 -19 41 -19 51 0 9 -25 77 -55 150
-54 131 -55 135 -55 232 0 75 5 110 20 149 11 28 20 59 20 70 0 18 -2 18 -35
-3 -155 -96 -304 -227 -460 -402 -101 -113 -147 -211 -164 -352 -11 -91 -11
-96 24 -240 20 -81 54 -206 77 -278 23 -74 56 -217 77 -333 l36 -203 -21 -216
-21 -217 41 -313 40 -313 613 0 c545 0 613 2 613 15 0 9 16 63 36 121 68 202
112 434 159 834 22 185 32 229 60 272 23 34 102 98 123 98 4 0 26 15 48 33 21
19 53 37 69 41 36 9 152 80 255 155 144 107 109 97 358 105 l222 6 0 -24 c0
-13 -11 -38 -25 -54 -14 -17 -25 -32 -25 -34 0 -3 -27 -45 -60 -94 -34 -49
-96 -143 -140 -209 -43 -66 -91 -138 -107 -160 -15 -21 -67 -105 -116 -185
-97 -162 -487 -739 -500 -739 -5 -1 -6 2 -4 7 3 4 39 139 81 299 50 191 74
301 70 318 -6 25 -7 25 -26 -12 -11 -21 -35 -65 -53 -99 -18 -33 -51 -110 -73
-170 -34 -91 -121 -308 -196 -487 l-16 -37 272 0 273 1 75 107 c76 109 1019
1434 1026 1441 2 2 84 -15 181 -38 125 -30 194 -41 232 -39 l54 3 -59 46 c-33
25 -99 89 -147 141 l-88 96 217 329 c181 274 241 376 368 618 129 247 158 312
198 438 39 124 49 171 58 283 17 186 6 205 -56 102 -46 -77 -118 -175 -244
-332 -52 -65 -102 -128 -110 -140 -8 -11 -60 -76 -115 -143 -55 -67 -128 -159
-162 -205 -34 -46 -135 -180 -225 -299 -90 -118 -192 -254 -226 -302 -41 -56
-71 -87 -83 -87 -10 0 -42 9 -71 21 -67 27 -199 59 -242 59 -18 0 -35 2 -38 5
-3 3 8 51 24 108 58 205 85 436 69 597 -6 56 -11 129 -11 163 0 60 -6 100 -38
267 -20 104 -23 551 -5 641 11 52 33 253 48 442 l7 77 42 0 c23 0 47 -5 53
-11 14 -14 32 -16 131 -18 67 -1 73 -3 82 -25 5 -13 13 -27 19 -30 5 -3 12
-19 16 -35 12 -57 29 -58 90 -6 37 32 58 59 65 84 17 58 33 73 77 70 47 -4 63
5 63 35 0 28 18 46 47 46 23 0 23 1 7 25 -9 14 -23 25 -30 25 -18 0 -18 17 -1
27 18 11 28 63 18 99 l-7 29 -80 -3 c-98 -5 -110 4 -101 79 6 47 5 50 -21 61
-97 38 -133 58 -179 102 -56 51 -62 68 -38 100 8 11 15 23 15 27 0 16 -120 99
-151 106 l-31 6 6 61 c7 68 58 353 77 431 14 55 19 436 7 429 -5 -3 -8 -11 -8
-17 0 -7 -14 -39 -30 -71 -17 -32 -30 -67 -30 -77 0 -20 -58 -165 -93 -234
-19 -37 -20 -38 -28 -17 -7 18 -39 30 -52 20 -7 -7 -87 65 -92 82 -4 11 -13
20 -20 20 -8 0 -20 12 -27 27 -7 15 -24 33 -36 39 -13 7 -41 29 -62 49 -21 20
-53 40 -72 44 -29 6 -33 11 -30 35 2 15 18 50 37 77 37 55 60 113 51 134 -7
18 -59 10 -96 -15 -32 -21 -95 -50 -109 -50 -7 0 -21 -16 -32 -35 -22 -37 -34
-41 -72 -24 -42 19 -59 62 -60 152 0 45 2 91 4 102 3 13 -2 21 -15 23 -31 6
-129 -19 -152 -40 -11 -10 -25 -18 -32 -18 -18 0 -142 -93 -142 -107 0 -7 -6
-13 -12 -13 -15 -1 -42 -36 -52 -67 -11 -34 -30 -28 -23 6 5 25 3 30 -19 35
-13 4 -33 2 -44 -4 -33 -18 -67 -12 -85 16 -15 24 -21 26 -61 20 -25 -3 -44
-2 -44 4 0 28 365 1548 388 1614 27 79 28 80 107 138 170 124 219 166 286 246
116 140 159 247 168 421 5 87 10 116 21 121 21 11 62 27 83 34 9 3 20 19 23
35 5 22 13 30 36 35 16 3 43 20 59 37 20 22 35 30 50 26 14 -4 22 1 29 17 11
29 28 42 67 50 17 4 37 14 44 23 11 13 8 20 -22 48 -21 19 -51 34 -75 38 -63
11 -70 19 -51 60 9 19 23 40 32 47 8 7 15 25 15 41 0 19 5 29 15 29 8 0 22 15
31 33 20 37 42 56 66 57 9 0 23 12 31 28 8 15 33 62 55 106 23 43 44 95 47
115 11 69 15 76 50 99 46 30 81 28 157 -8 34 -16 73 -30 85 -30 31 0 126 -47
153 -75 33 -35 41 -89 30 -206 -8 -91 -7 -107 9 -131 l17 -28 37 44 c25 30 51
49 83 60 48 16 138 21 168 10 20 -8 21 -34 1 -60 -8 -10 -15 -40 -15 -66 0
-26 -4 -50 -10 -53 -5 -3 -10 -13 -10 -22 0 -9 -8 -25 -17 -35 -14 -16 -15
-23 -5 -38 7 -11 12 -27 12 -35 0 -8 5 -25 12 -38 6 -12 14 -29 18 -37 4 -8
21 -20 38 -26 18 -5 37 -15 44 -22 7 -7 34 -12 61 -12 l49 0 -6 -47 c-11 -101
-18 -138 -27 -148 -5 -5 -9 -26 -9 -47 0 -28 5 -40 18 -44 9 -3 24 -9 32 -13
18 -10 78 -2 86 10 18 30 54 -20 54 -75 0 -36 18 -46 51 -29 20 10 29 22 29
39 0 14 4 22 10 19 6 -3 10 -19 10 -34 0 -16 6 -34 14 -40 11 -9 18 -6 34 14
21 26 41 32 58 15 11 -11 103 30 124 55 7 8 18 15 25 15 16 0 41 29 49 57 6
19 2 25 -19 33 -52 20 -136 64 -147 77 -9 11 -6 21 12 46 29 38 41 134 19 151
-8 6 -19 20 -25 31 -7 12 -27 23 -52 27 -70 12 -144 76 -186 162 -20 40 -36
76 -36 80 0 16 -192 392 -220 432 -40 56 -152 160 -199 184 -38 19 -56 43 -46
60 3 5 21 14 40 20 41 14 45 25 9 34 -20 5 -24 11 -19 27 6 18 4 20 -15 14
-13 -4 -31 0 -46 10 -14 9 -33 13 -43 10 -11 -3 -26 1 -34 9 -8 8 -17 13 -19
10 -3 -2 -16 0 -29 5 -24 10 -24 10 4 10 16 1 43 11 60 24 27 19 43 22 109 20
l77 -2 46 52 c25 28 45 59 45 68 0 9 9 24 21 35 12 10 27 31 35 46 8 16 20 28
28 28 19 0 60 47 47 54 -6 4 -8 20 -5 35 5 24 1 33 -25 52 -28 20 -31 28 -31
73 0 29 7 59 15 70 20 26 19 41 -4 74 -13 19 -18 37 -14 59 5 29 9 33 49 39
35 5 50 14 74 44 33 42 39 86 13 105 -15 11 -15 18 -6 51 7 22 14 61 18 88 3
27 12 57 20 66 22 25 19 42 -19 87 -19 22 -38 53 -42 69 -4 16 -18 43 -31 60
-14 19 -23 45 -23 65 0 41 -15 59 -48 59 -22 0 -24 3 -19 29 4 20 1 33 -12 45
-16 15 -19 14 -38 -7 -11 -12 -44 -57 -73 -100 -52 -76 -53 -77 -94 -76 -22 1
-57 -2 -76 -6 -35 -7 -36 -6 -45 32 -8 28 -16 39 -32 41 -13 2 -23 8 -23 13 0
6 -19 9 -42 7 -34 -2 -43 0 -46 15 -4 19 47 107 62 107 26 0 48 71 26 85 -5 3
-10 13 -10 22 0 19 -45 63 -65 63 -8 0 -17 5 -21 11 -10 17 -112 4 -135 -17
-16 -14 -23 -15 -42 -6 -42 22 -120 32 -137 17 -31 -28 -64 -27 -105 1 -33 22
-50 27 -95 26 -132 -3 -156 -11 -162 -57 -3 -27 -8 -31 -48 -38 -25 -4 -59
-10 -76 -13 -29 -5 -33 -3 -38 23 -4 16 -27 48 -51 72 -29 28 -47 55 -51 77
-3 19 -14 40 -24 47 -9 6 -22 22 -29 35 -7 13 -23 27 -37 32 -13 5 -24 16 -24
25 0 8 -5 15 -12 15 -10 0 -76 27 -117 49 -43 22 -33 71 13 71 26 0 46 18 46
40 0 21 -81 100 -103 100 -9 0 -17 5 -17 12 0 6 -8 3 -20 -7 -18 -16 -22 -17
-54 -1 -19 9 -36 15 -38 14 -1 -1 -35 -4 -73 -7z m-710 -816 c31 -7 24 -26
-15 -44 -40 -17 -57 -9 -58 28 -1 33 -6 32 73 16z m1770 -54 c57 -18 58 -19
23 -20 -20 -1 -40 4 -43 9 -3 6 -17 10 -30 10 -13 0 -27 5 -30 10 -9 15 12 12
80 -9z m-2230 -1251 c4 -6 10 -8 15 -5 5 3 22 0 37 -8 26 -14 26 -15 6 -26
-27 -14 -108 -9 -107 7 1 7 2 19 3 27 1 17 36 21 46 5z m2580 -101 c0 -8 -10
-15 -22 -17 -26 -4 -29 2 -10 23 14 17 32 14 32 -6z m-2455 -485 c0 -9 -16
-34 -35 -56 -30 -36 -34 -46 -31 -89 2 -26 13 -67 24 -91 11 -24 23 -53 27
-65 3 -12 19 -33 35 -47 16 -13 32 -35 36 -50 3 -14 12 -30 20 -37 8 -6 14
-18 14 -26 0 -7 7 -25 16 -38 10 -15 14 -34 10 -49 -9 -35 3 -56 30 -56 13 0
24 -4 24 -10 0 -5 17 -21 39 -34 50 -32 84 -86 75 -120 -11 -46 70 -146 120
-146 13 0 28 -5 32 -11 3 -6 17 -8 32 -4 16 4 28 1 33 -7 15 -23 61 12 76 58
14 41 14 42 50 34 19 -5 39 -12 43 -17 4 -4 30 -57 56 -118 39 -88 48 -120 47
-160 -1 -27 -4 -180 -6 -340 l-3 -290 -58 -275 c-48 -229 -133 -613 -189 -850
-29 -119 -188 -757 -197 -785 -5 -16 -11 -41 -14 -55 -2 -14 -18 -81 -36 -150
-18 -69 -35 -141 -40 -160 -19 -87 -92 -352 -114 -415 -20 -56 -25 -64 -25
-39 -1 17 -10 39 -21 49 -11 10 -20 23 -20 30 0 6 -12 22 -26 36 -14 13 -69
75 -122 138 -52 62 -123 134 -156 160 -34 25 -86 69 -116 98 -30 28 -81 75
-112 104 -32 28 -58 57 -58 63 0 9 -44 129 -117 316 -37 96 -42 108 -53 133
-73 173 -110 288 -110 345 0 53 13 85 92 221 40 68 43 77 77 183 36 113 37
145 10 293 -11 61 -26 148 -33 195 -18 109 -23 129 -52 222 -33 102 -36 178
-8 210 12 12 24 31 27 40 3 9 16 18 28 20 17 2 25 14 36 53 22 81 56 145 76
145 31 0 125 69 159 116 24 34 38 44 59 44 18 0 32 7 39 21 7 11 10 21 8 22
-2 1 -29 15 -61 31 -53 27 -197 156 -197 177 0 5 17 9 38 9 l37 0 -3 75 -4 75
33 0 c19 0 44 -6 55 -13 91 -53 131 -77 141 -86 8 -7 15 -6 22 3 6 7 23 11 41
8 32 -5 39 8 15 28 -24 20 -18 48 15 65 16 8 37 15 46 15 9 0 22 7 29 17 7 9
27 17 46 17 43 2 59 12 59 37 0 12 7 19 20 19 29 0 25 16 -19 68 -21 26 -52
71 -67 101 -77 144 -76 142 -83 250 -6 98 -5 104 15 118 17 10 22 27 27 78 8
79 48 165 77 165 12 0 20 -7 20 -16z m1005 -3664 c10 -11 26 -22 37 -26 21 -6
63 -87 54 -103 -9 -14 -89 -1 -107 18 -22 21 -35 131 -16 131 8 0 22 -9 32
-20z m-255 -95 c0 -8 -4 -15 -10 -15 -5 0 -7 7 -4 15 4 8 8 15 10 15 2 0 4 -7
4 -15z m-15 -105 c3 -5 -11 -26 -30 -47 -19 -21 -35 -41 -35 -45 0 -5 -4 -8
-9 -8 -7 0 5 56 23 107 5 12 43 7 51 -7z m-234 -110 c27 -22 22 -25 -15 -10
-14 5 -26 14 -26 20 0 16 15 12 41 -10z m995 -816 c27 -14 53 -29 57 -34 5 -4
-3 -30 -18 -56 -15 -27 -53 -96 -83 -154 -30 -58 -65 -121 -77 -140 -12 -19
-39 -68 -60 -107 -39 -76 -55 -90 -55 -48 0 13 -11 54 -25 91 -19 51 -26 93
-30 179 l-6 113 27 21 c15 12 33 21 40 21 8 0 14 10 14 23 0 40 96 117 146
117 12 0 43 -12 70 -26z m-1115 -406 c100 -49 264 -170 272 -198 3 -11 13 -22
24 -26 39 -12 46 -22 78 -104 46 -120 73 -179 106 -227 29 -41 29 -42 29 -199
l0 -157 -35 -38 c-44 -49 -44 -67 -6 -236 28 -122 30 -145 39 -471 5 -189 6
-360 1 -380 -9 -44 -58 -89 -106 -98 -18 -3 -37 -12 -43 -19 -6 -8 -17 -52
-24 -99 -7 -48 -15 -88 -18 -91 -3 -3 -39 84 -80 192 -191 498 -479 1709 -480
2013 0 31 7 73 16 95 9 21 14 45 12 52 -8 19 24 32 80 33 41 0 69 -9 135 -42z"/>
</g>
</svg>
