<?xml version="1.0" standalone="no"?>
<!DOCTYPE svg PUBLIC "-//W3C//DTD SVG 20010904//EN"
 "http://www.w3.org/TR/2001/REC-SVG-20010904/DTD/svg10.dtd">
<svg version="1.0" xmlns="http://www.w3.org/2000/svg"
 width="721.000000pt" height="1280.000000pt" viewBox="0 0 721.000000 1280.000000"
 preserveAspectRatio="xMidYMid meet">
<metadata>
Created by potrace 1.15, written by Peter Selinger 2001-2017
</metadata>
<g transform="translate(0.000000,1280.000000) scale(0.100000,-0.100000)"
fill="#3f51b5" stroke="none">
<path d="M3994 12669 c-20 -5 -42 -25 -60 -51 -51 -75 -71 -86 -121 -67 -37
14 -93 -1 -105 -27 -6 -13 -19 -26 -28 -29 -10 -3 -20 -15 -23 -25 -3 -13 -14
-20 -30 -20 -30 0 -63 -38 -47 -54 15 -15 12 -36 -4 -36 -8 0 -17 -8 -21 -18
-3 -11 -17 -24 -30 -30 -14 -6 -25 -20 -25 -30 0 -11 -9 -27 -20 -37 -22 -20
-27 -73 -10 -105 8 -14 6 -30 -5 -56 -8 -20 -15 -38 -15 -39 0 -2 24 -6 52
-10 51 -7 52 -8 30 -23 -13 -8 -22 -25 -22 -39 0 -16 -13 -37 -36 -58 l-36
-33 -71 69 c-65 65 -69 71 -58 95 15 33 14 34 -9 34 -12 0 -20 7 -20 16 0 9
-7 14 -17 12 -10 -2 -31 10 -47 26 -25 26 -30 27 -38 13 -13 -24 -33 -21 -48
9 -10 18 -20 24 -34 20 -11 -3 -26 0 -34 6 -11 10 -18 7 -31 -11 -14 -18 -21
-20 -42 -12 -18 6 -33 6 -50 -3 -20 -10 -30 -9 -68 11 -73 38 -111 29 -111
-27 0 -27 -51 -42 -139 -42 -74 0 -79 -1 -90 -25 -7 -15 -17 -23 -26 -20 -9 4
-30 -16 -59 -55 -42 -56 -46 -67 -46 -118 l0 -56 53 -28 c65 -35 119 -103 95
-120 -24 -18 -37 -49 -58 -143 -11 -48 -22 -98 -25 -110 -4 -19 -12 -23 -40
-23 -30 0 -44 -9 -84 -50 -28 -29 -57 -50 -70 -50 -35 0 -63 -68 -55 -133 4
-36 3 -57 -5 -61 -8 -5 -8 -13 0 -27 7 -14 7 -24 0 -33 -15 -18 -2 -52 25 -65
13 -6 24 -17 24 -25 0 -8 12 -29 27 -46 21 -26 24 -36 16 -49 -7 -11 -8 -23
-2 -32 5 -8 9 -26 9 -41 0 -16 10 -34 25 -46 15 -12 23 -26 19 -35 -3 -10 2
-18 15 -22 12 -4 21 -15 21 -26 0 -19 6 -20 67 -17 64 3 67 2 73 -22 4 -18 16
-27 47 -36 57 -17 109 -54 233 -168 57 -53 108 -96 113 -96 4 0 17 5 28 10 21
12 115 -8 151 -32 11 -8 38 -53 59 -102 l38 -88 -26 7 c-24 6 -25 4 -13 -10
12 -15 10 -16 -16 -10 l-29 6 25 -15 25 -15 -30 -1 c-23 0 -27 -3 -15 -10 12
-8 9 -10 -12 -10 -31 0 -36 -11 -13 -30 24 -20 18 -27 -26 -34 -23 -4 -96 -23
-163 -42 -101 -30 -137 -46 -216 -99 -241 -159 -256 -166 -318 -163 l-57 3 0
85 c0 80 -1 85 -22 88 -12 2 -27 10 -33 18 -7 8 -28 14 -46 14 -23 0 -38 6
-46 20 -7 11 -23 20 -35 20 -19 0 -23 -5 -23 -31 0 -24 -3 -30 -16 -25 -9 3
-17 6 -20 6 -12 0 -44 85 -44 118 0 49 -18 102 -35 102 -7 0 -18 -14 -24 -32
-6 -17 -14 -28 -18 -25 -3 4 -16 1 -29 -7 -20 -14 -24 -13 -39 4 -19 21 -60
27 -70 10 -3 -5 -22 -10 -41 -10 -33 0 -34 1 -34 40 0 45 -19 54 -43 19 -10
-14 -17 -17 -22 -9 -9 15 -45 -42 -45 -73 0 -15 -12 -29 -37 -43 -31 -18 -37
-27 -37 -55 -1 -24 -6 -34 -16 -34 -8 1 -29 -10 -47 -22 -17 -13 -36 -23 -40
-23 -5 0 -29 -9 -52 -21 l-44 -21 -20 20 -20 20 22 37 c31 53 28 91 -9 110
-34 17 -83 20 -111 5 -15 -9 -19 -7 -19 5 0 9 -16 25 -35 36 -25 15 -40 34
-52 68 l-17 48 -48 -3 c-27 -1 -60 -10 -73 -18 -14 -9 -25 -12 -25 -6 0 5 -7
10 -15 10 -20 0 -19 -9 5 -62 33 -76 50 -181 50 -314 0 -105 4 -140 26 -217
24 -86 26 -101 20 -227 -7 -157 15 -354 62 -558 16 -67 26 -124 23 -126 -3 -2
-97 -41 -209 -85 -164 -66 -212 -81 -255 -81 -46 0 -59 -5 -92 -33 -37 -32
-38 -34 -39 -107 -1 -62 -5 -78 -21 -92 -11 -9 -23 -12 -26 -7 -3 6 -22 6 -45
1 -34 -7 -39 -12 -42 -37 -2 -17 -8 -36 -14 -42 -6 -7 -7 -20 -4 -29 4 -11 -1
-26 -14 -39 l-20 -21 20 -58 c21 -61 20 -67 -13 -103 -27 -30 -16 -105 19
-135 15 -13 24 -32 24 -49 0 -70 45 -107 84 -70 37 35 53 25 19 -11 -17 -18
-34 -43 -38 -56 -3 -12 -15 -27 -26 -32 -14 -8 -19 -21 -19 -51 0 -51 29 -66
91 -44 72 26 83 22 111 -43 21 -49 30 -59 60 -69 31 -9 39 -8 56 9 19 19 20
19 41 2 14 -12 21 -30 21 -54 0 -29 -6 -38 -31 -53 l-32 -18 7 -66 c8 -81 19
-102 56 -109 16 -4 31 -12 34 -20 3 -8 14 -14 24 -14 24 0 42 -19 42 -46 0
-17 8 -24 31 -29 17 -4 33 -5 36 -2 2 3 20 -1 38 -9 48 -20 55 -18 55 15 0 57
59 227 114 325 l54 99 12 -44 c50 -190 56 -204 132 -314 77 -113 138 -231 138
-268 0 -11 22 -52 48 -91 88 -130 83 -97 80 -568 l-3 -418 -22 -15 c-13 -9
-23 -22 -23 -29 0 -8 -12 -22 -27 -32 l-28 -17 40 -14 40 -13 -12 -265 c-7
-147 -13 -292 -15 -323 l-3 -57 -24 45 c-13 25 -49 74 -80 110 -94 108 -184
229 -261 350 -40 63 -74 117 -76 119 -2 2 -10 -1 -17 -7 -9 -8 -17 -8 -23 -2
-16 16 -53 -17 -59 -53 -4 -18 -2 -77 2 -131 5 -55 7 -112 5 -128 -4 -27 -5
-27 -19 -11 -16 20 -16 23 10 -68 11 -38 10 -65 -11 -204 -31 -212 -28 -253
25 -331 26 -37 61 -73 91 -93 80 -51 239 -113 306 -118 110 -10 98 10 220
-365 59 -183 166 -481 237 -663 138 -354 163 -445 223 -802 25 -147 25 -150
16 -493 -12 -472 -41 -835 -91 -1155 -22 -143 -41 -272 -42 -287 -2 -25 -8
-28 -71 -43 -39 -8 -73 -12 -77 -8 -4 5 -21 71 -39 148 -18 77 -85 329 -150
560 l-118 420 -11 199 c-6 109 -12 200 -13 202 -2 1 -44 -35 -95 -82 -81 -74
-105 -106 -217 -282 l-125 -198 -28 -118 -27 -118 18 -181 c9 -100 51 -388 92
-639 40 -252 74 -460 74 -463 0 -3 681 -5 1513 -5 l1513 0 33 108 c32 105 33
113 43 377 l9 270 111 285 c61 157 153 398 204 537 l94 252 31 258 c31 254 32
259 71 337 58 116 377 574 428 615 23 18 38 37 33 41 -4 4 -38 19 -76 33 -74
28 -123 26 -235 -8 -48 -15 -54 -20 -81 -73 -21 -41 -48 -144 -96 -362 l-67
-305 -123 -265 c-68 -146 -166 -353 -218 -460 l-95 -195 -1 84 c-1 124 48 279
155 486 50 96 123 265 185 425 91 237 182 500 174 500 -2 0 -87 -101 -190
-225 -102 -124 -188 -225 -190 -225 -1 0 3 21 11 47 9 30 32 65 64 99 55 58
57 68 36 156 -12 53 -12 59 5 74 12 10 19 31 19 51 0 18 47 165 104 326 199
559 309 914 376 1222 80 364 121 506 157 549 15 18 67 78 114 132 48 55 141
177 208 272 l122 174 20 105 c18 94 19 114 8 177 -17 96 -14 130 16 205 30 78
30 79 5 56 -33 -30 -22 -1 11 31 67 62 222 252 273 334 36 57 64 120 86 190
20 66 54 142 91 207 42 73 58 109 54 125 -4 16 16 64 67 163 l73 140 43 3 c46
3 51 15 33 80 -13 44 11 115 44 130 29 13 31 24 9 42 -30 26 -37 50 -19 76 14
21 14 35 4 109 l-11 85 32 36 c17 20 39 52 48 70 15 32 15 35 -7 57 l-22 24
26 79 c13 43 25 87 25 97 0 26 -25 31 -54 12 -25 -16 -26 -16 -26 0 0 16 -2
16 -25 1 -33 -22 -38 -20 -31 9 9 34 -26 53 -62 34 -20 -11 -26 -11 -29 -1 -3
6 -11 12 -19 12 -10 0 -14 -12 -14 -40 0 -23 -10 -60 -21 -83 -62 -120 -240
-425 -304 -517 -39 -58 -74 -119 -78 -136 -3 -16 -37 -89 -76 -161 -38 -72
-81 -167 -95 -212 -17 -57 -50 -123 -109 -219 -63 -103 -89 -157 -106 -217
-21 -78 -22 -82 -6 -155 16 -69 47 -410 40 -419 -5 -4 -67 38 -82 57 -10 12
-16 10 -37 -14 -14 -16 -26 -42 -26 -57 0 -19 -6 -30 -18 -34 -10 -2 -31 -30
-46 -61 -33 -67 -156 -272 -164 -272 -3 0 -2 57 1 128 4 70 -5 537 -19 1037
-14 519 -23 968 -19 1045 4 88 16 182 35 270 16 74 34 162 41 195 6 33 46 141
89 240 43 99 97 229 120 290 l42 110 -12 80 -12 80 37 31 38 31 -15 67 c-15
64 -14 68 3 79 16 10 19 24 19 84 l0 71 -50 11 c-27 6 -68 14 -90 17 -47 8
-46 5 -25 144 18 114 18 123 5 115 -14 -9 -14 -7 30 145 25 88 40 159 40 194
0 31 3 56 7 56 18 0 132 -74 285 -185 94 -68 199 -139 234 -157 49 -26 65 -39
70 -60 4 -23 11 -28 34 -28 24 0 36 10 69 57 45 62 47 71 26 112 -12 24 -12
31 -1 47 13 17 19 13 92 -53 116 -105 277 -273 303 -315 26 -44 43 -48 59 -14
6 13 31 38 56 56 29 21 47 43 51 61 4 19 13 29 24 29 26 0 50 31 67 86 23 77
21 84 -30 84 l-44 0 27 51 c31 55 31 98 0 106 -23 6 -24 26 -3 59 25 37 6 194
-23 194 -15 0 -14 20 3 63 3 10 -2 18 -15 22 -12 3 -21 13 -21 21 0 8 -11 19
-25 24 -21 8 -25 16 -25 54 0 38 -5 48 -35 75 -20 17 -40 31 -45 31 -5 0 -12
9 -15 20 -4 12 -15 20 -30 20 -23 0 -35 22 -35 68 0 16 -6 22 -22 22 -18 0
-29 -14 -52 -66 -35 -78 -114 -214 -124 -214 -4 0 -20 10 -35 23 l-28 22 11
92 c14 110 3 163 -42 210 -23 24 -43 33 -79 38 -44 6 -55 13 -100 65 -41 47
-71 68 -167 118 -150 78 -174 82 -287 47 -86 -26 -229 -55 -272 -55 -29 0 -42
64 -50 248 -3 78 -10 142 -15 142 -5 0 -26 -11 -46 -25 -20 -14 -42 -25 -48
-25 -18 0 -24 41 -12 82 8 29 8 44 0 64 -7 13 -12 46 -12 72 0 35 -8 61 -33
102 -31 51 -36 55 -83 63 -29 5 -63 19 -84 36 -34 27 -55 34 -148 47 -37 6
-46 12 -62 44 -16 31 -17 40 -6 55 9 13 10 27 2 56 -9 35 -14 39 -50 47 -33 6
-43 13 -51 37 -14 42 -55 76 -83 71 -37 -6 -62 44 -62 121 0 59 -2 63 -26 69
-22 6 -25 11 -22 43 3 31 0 36 -20 39 -21 3 -22 8 -22 83 0 85 -4 90 -55 69
-13 -5 -26 -3 -35 5 -18 15 -73 26 -155 29 -33 2 -69 6 -80 9 -11 3 -34 1 -51
-4z m-778 -2149 c3 0 54 -80 54 -85 0 -11 -53 -25 -72 -20 -15 5 -78 109 -78
129 0 3 21 -1 48 -9 26 -8 48 -15 48 -15z m-97 -1465 c18 -31 38 -55 47 -55 9
0 14 -6 12 -12 -37 -98 -40 -119 -24 -143 18 -27 52 -49 65 -41 4 3 13 -5 19
-18 6 -13 29 -32 51 -42 22 -11 41 -24 41 -30 0 -6 -40 -44 -89 -85 -59 -49
-90 -81 -90 -95 -1 -12 -11 -25 -24 -31 -19 -9 -23 -17 -19 -47 4 -31 1 -36
-17 -36 -11 0 -25 9 -31 20 -14 26 -37 26 -45 0 -7 -22 -45 -36 -71 -26 -12 4
-15 15 -12 36 4 23 1 30 -12 30 -10 0 -24 16 -34 39 -18 38 -19 39 -84 45 -37
4 -80 13 -97 20 l-30 13 25 12 c14 7 38 30 53 52 23 31 35 39 60 39 25 0 37 7
55 34 13 19 22 45 20 63 -1 16 7 45 19 64 11 19 30 60 42 91 21 53 25 56 47
48 21 -8 24 -6 30 28 6 34 38 82 55 82 4 0 21 -25 38 -55z m1328 -152 c-20
-190 -20 -217 2 -290 40 -133 140 -279 354 -514 43 -48 86 -97 94 -109 40 -57
42 -106 77 -1730 l13 -615 -28 -355 -27 -355 -96 -425 c-89 -401 -103 -453
-250 -910 -85 -267 -159 -497 -165 -512 -13 -33 -40 -36 -66 -8 -10 11 -26 20
-36 20 -10 0 -21 12 -27 29 -11 32 -69 81 -96 81 -10 0 -30 9 -45 19 -14 10
-63 29 -107 41 l-80 22 -27 62 c-23 51 -29 89 -42 241 -9 99 -20 218 -25 265
-6 47 -10 92 -10 100 -1 11 -4 10 -15 -4 -9 -12 -15 -42 -15 -77 0 -48 -3 -57
-20 -62 -11 -3 -24 -16 -29 -29 -8 -21 -13 -14 -51 67 -63 131 -62 142 39 360
l83 179 -6 106 c-4 58 -21 178 -38 267 l-30 163 73 101 c50 70 97 121 148 163
143 116 155 131 201 251 24 61 60 169 80 240 36 124 92 269 111 289 16 17 10
48 -11 53 -20 5 -20 6 5 39 32 42 36 109 5 99 -24 -8 -70 21 -70 45 0 10 -12
26 -27 35 -26 17 -27 17 -49 -8 -19 -22 -24 -24 -34 -12 -16 20 -30 19 -60 -5
-32 -25 -51 -25 -83 0 -34 27 -46 25 -53 -8 -5 -25 -9 -27 -40 -24 -30 4 -34
8 -34 33 0 44 -21 130 -40 169 -23 45 -24 175 -4 315 12 86 18 103 39 118 14
10 25 25 25 33 0 8 11 24 24 35 35 31 23 46 -42 53 -31 4 -70 12 -85 18 -22 9
-30 8 -40 -5 -7 -9 -23 -17 -37 -19 -22 -3 -26 -9 -30 -49 -11 -90 -54 -108
-65 -26 -7 56 -23 117 -31 117 -3 0 -14 -5 -25 -10 -14 -8 -25 -6 -44 6 -20
13 -29 14 -38 5 -6 -6 -21 -11 -34 -11 -26 0 -31 -26 -13 -61 9 -16 6 -25 -20
-50 -34 -34 -37 -47 -15 -55 15 -6 21 -45 9 -57 -3 -3 -17 -2 -30 3 -31 12
-36 1 -25 -52 11 -48 8 -56 -13 -39 -8 7 -24 10 -34 7 -12 -4 -25 1 -37 14
-17 19 -18 19 -38 -6 -18 -23 -18 -27 -4 -41 14 -14 14 -19 -1 -49 -15 -33
-18 -34 -74 -34 -32 0 -66 5 -76 11 -16 10 -30 0 -104 -75 -81 -82 -84 -87
-66 -103 27 -24 132 -193 124 -200 -3 -3 -27 -7 -52 -8 -86 -3 -101 -55 -52
-179 15 -40 18 -63 13 -112 l-7 -62 -112 -51 c-88 -40 -288 -111 -313 -111 -3
0 0 6 6 14 7 8 9 29 5 54 -5 35 -3 41 14 46 12 4 26 22 33 43 11 35 10 38 -16
60 -15 13 -34 22 -42 19 -8 -3 -21 -6 -28 -6 -7 0 -16 -11 -19 -25 -7 -28 -23
-32 -52 -10 -10 8 -27 15 -36 15 -30 0 -20 29 16 47 19 8 39 27 45 41 10 21 9
27 -9 39 -11 8 -20 21 -20 29 0 9 -10 14 -27 14 -14 0 -34 7 -43 15 -26 23
-73 6 -80 -31 -4 -16 -15 -42 -24 -57 -16 -24 -25 -27 -72 -27 -49 0 -55 -2
-69 -30 -23 -44 -47 -38 -101 25 -26 30 -55 55 -63 55 -9 0 -29 9 -46 20 -37
24 -58 25 -96 3 -15 -9 -30 -15 -32 -12 -3 2 1 147 7 321 l12 317 50 73 c109
158 182 300 209 409 35 136 30 183 -37 354 -46 115 -77 218 -78 251 0 7 9 14
20 17 24 6 27 43 5 75 -15 20 -13 25 32 84 26 35 70 97 97 138 100 154 172
180 526 194 l34 1 21 -75 c36 -127 112 -261 255 -450 73 -96 158 -202 190
-235 32 -33 60 -72 64 -87 8 -35 30 -36 79 -3 29 20 37 32 37 57 0 25 3 30 20
25 13 -3 25 2 34 15 12 17 12 24 -2 48 -15 26 -15 32 3 84 l19 56 -26 27 c-25
26 -26 32 -17 76 6 32 5 55 -2 68 -5 11 -7 29 -4 39 9 27 62 27 91 -1 35 -33
61 -13 66 53 4 46 2 56 -19 73 -12 12 -23 30 -23 41 0 15 -14 26 -53 42 -29
12 -59 22 -68 22 -10 0 -21 16 -29 40 -13 38 -17 42 -71 57 -42 12 -60 22 -68
40 -12 26 -15 155 -5 166 4 4 24 -9 46 -28 21 -19 43 -35 48 -35 6 0 10 16 10
35 0 29 4 35 22 35 12 0 30 7 40 17 16 14 22 14 43 3 20 -10 30 -11 51 -2 34
16 40 11 47 -43 10 -72 27 -89 121 -120 76 -25 85 -31 90 -56 5 -24 10 -29 36
-29 20 0 30 -5 30 -15 0 -24 56 -47 95 -39 31 5 35 10 35 38 0 17 -7 64 -17
104 -13 55 -14 75 -5 84 9 9 18 6 40 -15 15 -15 34 -27 40 -27 7 0 35 -20 61
-45 48 -45 77 -55 98 -34 8 8 14 1 22 -24 10 -30 17 -35 54 -42 87 -14 90 -13
102 29 7 25 19 42 33 47 12 5 22 17 22 27 0 10 5 23 12 30 9 9 8 27 -5 79 -17
71 -32 193 -43 350 l-6 91 36 61 c35 57 48 67 90 70 17 1 18 -5 13 -56z
m-2529 -3481 c18 -14 82 -85 143 -159 l110 -135 -15 -323 c-16 -316 -15 -325
4 -420 16 -78 30 -113 69 -179 85 -142 88 -151 99 -285 8 -113 7 -128 -11
-178 -14 -38 -28 -58 -44 -64 -19 -7 -22 -13 -15 -26 7 -13 -8 -65 -51 -185
-34 -93 -64 -165 -68 -160 -41 42 -321 850 -360 1037 -40 192 -37 727 7 1103
l6 53 47 -27 c25 -15 61 -38 79 -52z m1289 -750 c-6 -175 -6 -181 23 -291 27
-102 36 -120 98 -209 38 -53 99 -132 135 -175 98 -118 99 -128 81 -450 -8
-144 -16 -262 -18 -264 -1 -1 -59 104 -129 235 -69 130 -193 353 -275 494
l-149 257 -183 191 c-101 105 -201 200 -222 212 -21 12 -38 25 -38 29 0 16 33
18 56 2 23 -15 26 -15 39 3 11 16 27 19 109 20 70 0 100 4 113 15 10 9 72 30
138 47 66 17 138 38 160 46 72 26 69 36 62 -162z m-505 -682 l164 -285 151
-440 151 -440 92 -480 c50 -264 98 -511 106 -549 8 -38 13 -71 11 -73 -3 -2
-64 145 -137 327 -74 181 -135 328 -137 326 -4 -4 55 -336 173 -980 41 -225
73 -410 72 -412 -2 -1 -53 111 -113 249 -77 177 -130 282 -176 353 l-66 101
-7 449 c-5 373 -11 518 -38 862 -18 226 -35 412 -38 412 -3 0 -73 -217 -157
-483 l-152 -482 -46 -440 c-41 -383 -53 -470 -96 -670 -27 -126 -70 -331 -95
-455 -25 -124 -50 -229 -54 -234 -5 -4 -27 -12 -49 -16 -37 -7 -41 -5 -41 14
0 11 18 179 40 371 35 306 42 406 56 800 9 275 13 528 9 651 l-6 200 90 196
c73 160 99 230 140 381 28 101 51 202 51 223 0 22 14 112 32 201 32 160 32
162 15 215 -13 40 -27 60 -56 82 -22 16 -60 50 -85 75 l-47 47 37 97 c20 54
38 96 40 95 1 -2 76 -131 166 -288z m1353 -1465 c103 -30 110 -34 113 -59 4
-30 -158 -716 -168 -716 -18 0 -40 119 -46 250 -5 118 -14 182 -50 344 -24
110 -44 206 -44 213 0 18 54 9 195 -32z"/>
</g>
</svg>
