<?xml version="1.0" standalone="no"?>
<!DOCTYPE svg PUBLIC "-//W3C//DTD SVG 20010904//EN"
 "http://www.w3.org/TR/2001/REC-SVG-20010904/DTD/svg10.dtd">
<svg version="1.0" xmlns="http://www.w3.org/2000/svg"
 width="640.000000pt" height="1280.000000pt" viewBox="0 0 640.000000 1280.000000"
 preserveAspectRatio="xMidYMid meet">
<metadata>
Created by potrace 1.15, written by Peter Selinger 2001-2017
</metadata>
<g transform="translate(0.000000,1280.000000) scale(0.100000,-0.100000)"
fill="#3f51b5" stroke="none">
<path d="M3025 12743 c-136 -135 -193 -301 -202 -599 -9 -285 13 -470 140
-1164 36 -195 71 -399 78 -453 14 -108 11 -116 -41 -117 -30 0 -127 -44 -155
-70 -11 -10 -64 -30 -119 -45 -54 -14 -107 -30 -118 -36 -11 -6 -22 -8 -25 -5
-3 3 2 8 11 12 12 5 16 19 16 58 0 60 33 354 85 751 44 334 52 596 22 743 -37
183 -126 377 -238 522 -63 81 -104 114 -171 137 l-43 15 -67 -71 c-102 -107
-139 -193 -153 -362 -14 -170 28 -328 195 -729 186 -447 261 -671 305 -914 23
-124 24 -141 10 -148 -8 -5 -15 -15 -15 -21 0 -7 -43 -51 -96 -97 -201 -177
-435 -461 -539 -655 -187 -347 -290 -685 -336 -1095 -25 -228 10 -457 112
-721 31 -80 46 -96 56 -59 4 14 11 19 22 15 11 -3 28 6 47 26 16 17 94 84 174
149 80 64 181 155 224 200 67 72 87 102 141 214 69 144 124 280 152 374 19 66
33 80 33 34 0 -81 95 -395 172 -564 l40 -90 -28 -52 c-26 -45 -29 -61 -29
-136 0 -70 4 -94 24 -135 37 -75 142 -174 231 -219 59 -29 76 -43 81 -64 11
-44 10 -579 -1 -672 -5 -47 -14 -166 -20 -265 -6 -99 -28 -394 -50 -655 -22
-261 -44 -552 -50 -646 -6 -95 -21 -234 -34 -310 l-22 -139 -34 60 c-117 207
-309 472 -431 594 -161 161 -185 271 -165 756 4 94 11 283 17 420 16 380 -6
548 -81 620 -22 21 -31 25 -34 14 -113 -339 -182 -658 -207 -955 -22 -259 2
-607 57 -816 10 -39 49 -113 126 -235 215 -344 380 -648 498 -918 55 -127 123
-303 139 -360 19 -69 -5 -345 -62 -710 -61 -386 -72 -505 -87 -955 -19 -534
-48 -980 -69 -1072 -28 -118 -58 -303 -72 -437 -19 -180 -1 -617 27 -662 2 -4
13 -5 24 -2 18 5 20 14 20 82 l0 76 68 0 c82 0 124 25 155 94 17 39 21 70 23
196 1 83 14 272 28 420 34 360 46 535 46 687 l0 126 126 189 c135 200 223 367
274 522 166 505 126 1131 -112 1714 l-40 97 11 228 c6 125 16 323 21 440 7
161 21 285 55 515 107 725 143 1103 151 1617 3 179 7 326 9 328 2 2 36 10 77
18 177 37 359 169 406 297 41 110 23 221 -52 320 l-24 32 25 75 c28 83 69 332
79 483 4 53 9 95 12 93 2 -3 19 -41 38 -86 37 -91 148 -305 206 -396 54 -87
160 -183 328 -298 80 -55 171 -120 203 -145 45 -35 60 -42 67 -31 12 20 -42
66 -229 193 -108 73 -194 140 -246 192 -70 70 -91 100 -167 240 -162 300 -195
402 -201 635 -3 98 -1 143 3 110 5 -30 9 -82 10 -115 2 -33 5 -49 7 -36 l5 24
24 -28 c13 -15 24 -32 24 -36 0 -4 6 -14 13 -21 7 -7 42 -56 77 -108 35 -52
70 -101 77 -108 7 -7 13 -17 13 -22 0 -5 6 -15 13 -22 7 -7 42 -56 77 -108 35
-52 70 -101 77 -108 7 -7 13 -17 13 -22 0 -5 6 -15 13 -22 7 -7 42 -56 77
-108 35 -52 69 -101 76 -108 7 -6 16 -21 19 -32 3 -11 11 -20 16 -20 6 0 7 5
3 12 -4 7 -3 8 4 4 6 -4 9 -13 5 -21 -3 -8 0 -15 6 -15 6 0 35 -48 65 -107 30
-60 55 -103 55 -98 1 6 -38 87 -85 180 -47 94 -234 463 -415 821 -181 358
-329 657 -329 665 0 8 119 -220 263 -506 269 -532 342 -671 358 -681 5 -3 9
-3 9 0 0 21 -181 495 -382 1000 -65 164 -117 300 -115 302 3 4 188 -456 502
-1251 183 -463 263 -648 276 -639 5 3 14 25 20 50 6 25 13 43 16 41 2 -3 -4
-34 -13 -71 -16 -63 -14 -96 4 -96 11 0 63 186 89 315 13 65 17 136 17 255 0
148 -3 180 -32 312 -18 80 -43 185 -57 233 -95 325 -285 701 -466 919 -107
128 -334 346 -464 444 -61 46 -113 93 -117 103 -6 16 -12 18 -26 10 -17 -9
-100 3 -239 34 -16 4 -23 1 -23 -10 0 -10 -19 -2 -64 29 -66 45 -170 86 -218
86 -16 0 -31 6 -34 14 -9 22 23 280 52 421 14 72 50 227 79 345 129 517 149
637 149 885 1 164 -2 202 -21 277 -26 101 -66 194 -118 272 -37 56 -139 166
-154 166 -4 0 -29 -21 -56 -47z m-430 -675 c25 -51 57 -138 72 -193 25 -94 27
-113 27 -320 0 -225 -9 -315 -106 -1015 l-11 -85 -13 65 c-16 83 -16 108 1 50
11 -38 13 76 14 733 1 762 1 779 -19 817 -11 22 -18 40 -15 40 3 0 26 -42 50
-92z m332 -640 c-3 -7 -5 -2 -5 12 0 14 2 19 5 13 2 -7 2 -19 0 -25z m293
-100 c-12 -51 -33 -136 -46 -188 -38 -155 -63 -278 -84 -404 -19 -116 -30
-154 -30 -105 0 13 -27 173 -59 354 -33 182 -62 353 -65 380 l-6 50 14 -40 c8
-22 14 -34 15 -27 1 9 32 12 120 12 106 0 120 -2 123 -17 2 -10 10 6 17 35 7
29 15 51 18 48 3 -2 -5 -46 -17 -98z m619 -1457 c23 -57 40 -105 38 -108 -3
-2 -13 19 -23 46 -9 27 -21 48 -25 46 -3 -3 -10 -42 -14 -87 -11 -135 -24
-174 -17 -53 9 141 8 170 -2 225 -5 25 -6 43 -3 40 2 -3 23 -52 46 -109z
m-1370 32 c-1 -32 0 -87 4 -123 7 -66 4 -70 -8 -15 l-7 30 -19 -23 c-41 -51
-464 -1430 -445 -1449 10 -11 19 6 97 195 40 95 74 171 75 169 2 -2 -74 -193
-168 -425 -95 -231 -174 -419 -176 -418 -2 2 26 98 62 212 36 115 150 490 255
834 105 344 220 720 256 835 35 116 65 216 65 223 0 6 3 12 6 12 3 0 4 -26 3
-57z m212 10 c-12 -20 -14 -14 -5 12 4 9 9 14 11 11 3 -2 0 -13 -6 -23z m-26
-73 c-13 -38 -15 -141 -15 -754 0 -679 1 -714 20 -775 10 -36 18 -67 16 -69
-2 -2 -15 32 -29 75 -65 199 -109 433 -95 497 5 22 11 201 13 396 l3 355 30
121 c30 119 61 209 68 201 2 -2 -3 -23 -11 -47z m1245 -125 c0 -5 -5 -3 -10 5
-5 8 -10 20 -10 25 0 6 5 3 10 -5 5 -8 10 -19 10 -25z m-1401 -107 l10 -87
-164 -407 c-91 -224 -168 -410 -171 -413 -9 -8 -12 -16 94 249 183 458 211
551 213 684 1 96 4 91 18 -26z m1261 -31 c0 -31 -12 -12 -32 51 -25 79 -22 87
7 24 14 -30 25 -63 25 -75z m160 88 c0 -5 -5 -3 -10 5 -5 8 -10 20 -10 25 0 6
5 3 10 -5 5 -8 10 -19 10 -25z m-1970 -185 c-6 -11 -13 -20 -16 -20 -2 0 0 9
6 20 6 11 13 20 16 20 2 0 0 -9 -6 -20z m-84 -167 c-14 -26 -25 -45 -26 -41 0
12 43 98 48 94 2 -2 -8 -26 -22 -53z m1961 -65 c-3 -8 -6 -5 -6 6 -1 11 2 17
5 13 3 -3 4 -12 1 -19z m10 -85 c-3 -10 -5 -4 -5 12 0 17 2 24 5 18 2 -7 2
-21 0 -30z m920 -1255 c-3 -8 -6 -5 -6 6 -1 11 2 17 5 13 3 -3 4 -12 1 -19z
m-57 -133 c0 -5 -5 -3 -10 5 -5 8 -10 20 -10 25 0 6 5 3 10 -5 5 -8 10 -19 10
-25z m-2920 -68 c0 -7 -7 -22 -15 -33 -13 -17 -14 -16 -4 14 11 33 19 41 19
19z m1202 -4750 c9 -90 9 -138 0 -210 -11 -92 -80 -348 -147 -547 l-35 -105 6
75 c8 108 29 240 68 440 29 149 35 204 40 370 7 244 13 273 38 170 10 -41 23
-128 30 -193z m-365 -1224 c-3 -10 -5 -4 -5 12 0 17 2 24 5 18 2 -7 2 -21 0
-30z m154 -166 c-10 -9 -11 -8 -5 6 3 10 9 15 12 12 3 -3 0 -11 -7 -18z m-164
-54 c-3 -10 -5 -4 -5 12 0 17 2 24 5 18 2 -7 2 -21 0 -30z m170 -25 c-2 -13
-4 -3 -4 22 0 25 2 35 4 23 2 -13 2 -33 0 -45z m-61 -35 c-8 -15 -15 -25 -16
-21 0 12 23 58 27 54 3 -2 -2 -17 -11 -33z m51 -180 c-2 -16 -4 -3 -4 27 0 30
2 43 4 28 2 -16 2 -40 0 -55z m-106 40 c-12 -20 -14 -14 -5 12 4 9 9 14 11 11
3 -2 0 -13 -6 -23z m-14 -45 c-3 -8 -6 -5 -6 6 -1 11 2 17 5 13 3 -3 4 -12 1
-19z m110 -130 c-2 -18 -4 -4 -4 32 0 36 2 50 4 33 2 -18 2 -48 0 -65z m-130
60 c-3 -8 -6 -5 -6 6 -1 11 2 17 5 13 3 -3 4 -12 1 -19z m-13 -67 c-4 -23 -9
-40 -11 -37 -3 3 -2 23 2 46 4 23 9 39 11 37 3 -2 2 -23 -2 -46z m133 -93 c-2
-13 -4 -3 -4 22 0 25 2 35 4 23 2 -13 2 -33 0 -45z m-161 -60 c-8 -51 -17
-133 -19 -183 -2 -49 -2 -66 0 -37 3 46 7 53 21 47 9 -3 38 -9 65 -12 46 -6
47 -7 48 -42 2 -34 2 -34 6 -6 3 17 11 84 19 150 12 104 13 108 9 35 -3 -47
-12 -166 -20 -265 -8 -99 -12 -205 -9 -235 7 -66 -8 -129 -40 -167 -19 -22
-33 -27 -84 -31 l-62 -4 0 53 c0 51 23 411 35 549 7 85 36 252 42 246 3 -3 -2
-47 -11 -98z"/>
<path d="M3865 12486 c-84 -40 -170 -147 -259 -320 -144 -280 -165 -506 -96
-1041 53 -415 78 -627 85 -732 7 -89 10 -103 25 -103 15 0 20 14 30 73 49 296
111 492 310 972 169 408 202 521 202 700 0 127 -13 193 -57 280 -37 74 -144
195 -174 195 -9 0 -38 -11 -66 -24z m-211 -331 c-12 -29 -14 -152 -13 -792 1
-506 4 -747 10 -724 17 55 19 29 4 -34 -8 -33 -14 -72 -15 -87 0 -16 -4 -28
-10 -28 -5 0 -10 17 -10 38 0 21 -23 211 -51 423 -89 672 -79 900 52 1162 40
79 59 103 33 42z"/>
<path d="M4630 7825 c0 -5 5 -17 10 -25 5 -8 10 -10 10 -5 0 6 -5 17 -10 25
-5 8 -10 11 -10 5z"/>
</g>
</svg>
