<?xml version="1.0" standalone="no"?>
<!DOCTYPE svg PUBLIC "-//W3C//DTD SVG 20010904//EN"
 "http://www.w3.org/TR/2001/REC-SVG-20010904/DTD/svg10.dtd">
<svg version="1.0" xmlns="http://www.w3.org/2000/svg"
 width="768.000000pt" height="1280.000000pt" viewBox="0 0 768.000000 1280.000000"
 preserveAspectRatio="xMidYMid meet">
<metadata>
Created by potrace 1.15, written by Peter Selinger 2001-2017
</metadata>
<g transform="translate(0.000000,1280.000000) scale(0.100000,-0.100000)"
fill="#3f51b5" stroke="none">
<path d="M6381 12774 c-48 -40 -117 -200 -195 -451 -43 -140 -206 -742 -206
-763 0 -11 11 -27 25 -36 23 -15 29 -14 91 6 36 12 74 30 84 40 9 9 20 41 24
71 7 55 155 655 199 809 13 47 35 137 48 201 19 98 21 120 10 133 -19 23 -45
20 -80 -10z"/>
<path d="M3171 11873 c-41 -34 -51 -139 -52 -527 0 -330 -1 -354 -19 -384 -44
-73 -49 -39 -60 398 -4 190 -8 346 -9 348 0 2 -5 1 -10 -2 -12 -8 -19 12 -27
76 -4 29 -13 61 -22 71 -22 25 -57 21 -81 -9 -18 -23 -21 -41 -21 -124 0 -164
-32 -229 -149 -304 -115 -74 -155 -136 -206 -321 -20 -72 -46 -159 -57 -195
-34 -104 -38 -132 -27 -173 13 -48 57 -77 119 -77 71 -1 144 -42 185 -104 9
-13 24 -81 35 -152 10 -71 33 -183 50 -249 74 -282 100 -391 100 -420 0 -49
39 -105 95 -136 45 -25 63 -28 173 -34 108 -5 133 -3 200 15 110 31 146 48
180 84 43 45 48 70 21 114 -16 27 -30 85 -50 212 -15 96 -35 218 -44 270 -18
99 -16 190 6 265 13 46 72 107 166 173 37 26 76 65 97 98 20 30 39 54 42 54 4
0 4 -15 0 -32 l-6 -33 19 25 c30 38 51 128 51 214 0 99 -9 116 -61 116 -55 0
-95 -42 -104 -108 -23 -165 -53 -228 -121 -257 -38 -15 -45 -35 -14 -35 11 0
20 -6 20 -14 0 -8 -9 -18 -20 -21 -35 -11 -59 4 -71 45 -16 54 11 110 61 126
47 15 94 79 120 160 25 82 25 127 0 183 -23 49 -25 102 -8 202 22 135 -19 220
-145 295 -34 21 -91 63 -127 95 -36 31 -79 64 -97 73 -42 21 -105 21 -132 -1z"/>
<path d="M5470 11719 c-33 -13 -75 -54 -112 -109 -52 -76 -80 -100 -168 -145
-86 -43 -199 -75 -265 -75 -53 0 -124 -70 -175 -173 -46 -90 -48 -107 -20
-132 19 -17 19 -19 3 -37 -10 -11 -41 -31 -70 -44 -60 -29 -80 -67 -48 -90 16
-12 17 -20 5 -94 -7 -44 -10 -97 -7 -116 5 -27 0 -49 -19 -86 -36 -71 -19
-107 37 -77 11 5 31 34 45 64 27 57 59 79 78 53 15 -21 51 -38 78 -38 29 0 64
19 171 92 98 67 124 78 178 78 53 0 66 8 185 111 55 48 115 94 132 103 37 19
56 49 47 76 -7 22 51 129 117 218 51 68 71 117 66 159 l-4 34 17 -23 c14 -18
21 -20 30 -11 19 19 -7 68 -63 114 -27 23 -63 62 -80 86 -43 63 -100 85 -158
62z"/>
<path d="M1844 11591 c-34 -21 -74 -67 -74 -85 0 -19 51 -63 94 -80 l39 -16
-8 -83 c-12 -130 -9 -146 45 -268 66 -149 70 -154 138 -188 31 -16 79 -50 106
-75 98 -92 144 -70 177 85 11 52 30 147 44 212 28 141 46 173 154 290 45 48
81 93 81 101 0 24 -29 28 -243 37 -114 5 -216 13 -227 19 -10 5 -29 10 -41 10
-12 0 -36 9 -53 19 -34 21 -118 41 -169 41 -18 0 -46 -9 -63 -19z"/>
<path d="M6120 11456 c-19 -7 -55 -25 -79 -40 -59 -38 -94 -47 -129 -34 -46
18 -98 2 -147 -46 -46 -43 -57 -78 -31 -93 20 -11 -30 -110 -99 -197 -44 -54
-52 -71 -46 -89 6 -16 18 -23 42 -25 19 -2 38 -8 44 -13 17 -17 44 -9 67 21
13 19 43 38 77 51 170 63 274 151 338 286 25 52 46 79 69 94 30 18 54 46 54
63 0 2 -7 12 -16 20 -19 19 -94 21 -144 2z"/>
<path d="M4576 11335 c-21 -7 -75 -36 -120 -63 -45 -28 -120 -68 -168 -90 -95
-44 -94 -43 -212 -239 -81 -137 -137 -206 -208 -261 -80 -62 -128 -166 -128
-278 0 -38 -24 -94 -41 -94 -5 0 -21 -11 -34 -25 -20 -19 -25 -34 -25 -76 l0
-51 -21 23 -20 24 5 -110 c7 -131 39 -362 53 -376 5 -5 17 -7 25 -4 14 6 137
203 190 304 27 52 107 139 376 408 180 180 248 255 263 289 22 49 19 80 -7 70
-12 -5 -15 -2 -10 10 4 9 11 48 16 86 13 90 25 116 110 243 86 128 97 170 55
203 -32 25 -46 26 -99 7z"/>
<path d="M1474 11259 c-17 -19 -19 -36 -16 -153 2 -130 13 -336 29 -536 12
-161 8 -341 -8 -351 -39 -24 -53 46 -68 321 -19 351 -32 524 -41 579 -17 92
-63 119 -101 59 -20 -32 -20 -42 -14 -253 3 -129 14 -277 26 -358 10 -75 19
-159 19 -185 0 -86 13 -115 117 -265 18 -24 46 -46 82 -63 121 -55 146 -70
149 -88 4 -17 -1 -18 -64 -14 -99 8 -156 38 -225 121 -31 37 -65 85 -74 105
-10 20 -33 54 -53 75 -31 32 -42 37 -80 37 -59 0 -234 -36 -297 -61 -173 -70
-212 -102 -281 -231 -63 -119 -102 -159 -197 -203 -95 -44 -265 -153 -306
-197 -33 -35 -71 -140 -71 -196 0 -39 35 -154 67 -215 31 -63 91 -127 155
-168 44 -29 61 -33 134 -37 164 -9 184 9 145 130 -13 39 -20 79 -17 91 5 22
164 159 213 186 18 9 76 14 192 16 138 2 182 7 261 28 196 51 280 105 404 261
82 103 122 140 175 162 26 11 42 12 58 5 33 -15 28 -36 -12 -59 -37 -23 -55
-64 -38 -91 6 -9 44 -30 86 -47 93 -39 136 -66 477 -305 262 -184 274 -188
332 -116 48 58 50 64 39 85 -12 23 -161 127 -161 113 0 -10 42 -47 63 -54 7
-2 9 -8 5 -12 -4 -4 -25 4 -45 19 -75 53 -79 56 -65 65 15 9 -31 42 -338 244
l-215 142 -42 85 c-63 127 -64 139 -12 200 42 50 43 52 49 148 5 71 14 114 33
159 40 92 43 132 17 182 -12 24 -26 70 -31 104 -15 92 -44 163 -91 226 -48 63
-123 140 -186 189 -23 18 -50 52 -61 76 -29 66 -80 86 -117 45z"/>
<path d="M7587 10948 c-40 -32 -295 -538 -409 -813 -174 -424 -295 -727 -333
-835 -24 -69 -62 -174 -85 -235 -24 -60 -72 -193 -107 -295 -65 -186 -99 -279
-145 -400 -177 -460 -448 -1228 -512 -1450 -16 -52 -37 -120 -48 -150 -40
-112 -111 -406 -112 -462 -1 -55 5 -70 19 -48 3 6 16 8 28 5 26 -7 140 65 169
105 10 14 29 70 43 125 13 55 56 206 95 335 39 129 84 278 100 330 15 52 51
160 80 240 29 80 83 235 120 345 37 110 80 229 95 265 15 36 53 139 85 230 32
91 71 203 88 250 16 47 42 123 57 170 15 47 49 135 75 195 27 61 56 135 65
165 9 30 24 75 32 100 8 25 30 89 48 142 18 53 45 116 59 141 14 24 26 53 26
65 0 12 9 36 20 54 11 18 20 41 20 50 0 10 27 85 60 168 33 83 83 219 110 303
28 83 56 161 62 172 23 41 65 152 72 190 4 21 16 55 26 75 9 19 34 80 55 135
20 55 52 131 71 168 26 52 34 81 34 123 0 50 -2 54 -23 54 -13 0 -31 -6 -40
-12z"/>
<path d="M5535 10793 c-81 -19 -306 -88 -348 -107 -29 -13 -87 -46 -131 -74
-82 -54 -143 -77 -176 -67 -11 4 -20 13 -20 20 0 40 -86 43 -158 6 -52 -27
-65 -43 -121 -161 -50 -103 -61 -137 -41 -125 6 3 10 1 10 -5 0 -7 -6 -10 -12
-8 -7 3 -23 -1 -36 -8 -32 -17 -186 -182 -337 -364 -71 -85 -148 -176 -172
-202 -24 -26 -43 -57 -43 -69 0 -32 34 -82 85 -123 l45 -37 29 22 c16 11 75
74 132 138 57 64 138 152 181 196 64 65 78 85 78 110 0 53 91 151 136 147 16
-1 37 12 64 41 70 72 126 169 73 126 -9 -8 0 10 20 40 20 29 37 57 37 62 0 5
7 9 15 9 23 0 18 45 -9 77 -12 15 -21 34 -19 41 7 18 178 -73 203 -108 13 -19
24 -58 31 -112 22 -180 55 -236 201 -331 113 -75 160 -126 141 -156 -13 -21
-4 -40 43 -93 20 -22 35 -52 39 -75 27 -173 99 -352 158 -397 50 -38 98 -45
292 -42 99 2 187 4 195 5 8 0 62 49 120 109 59 59 132 126 163 150 59 44 106
105 125 159 7 20 8 79 5 162 -5 108 -2 152 17 264 l23 135 -47 97 c-57 118
-103 169 -221 248 -49 33 -126 95 -172 138 -94 89 -170 129 -285 153 -72 15
-265 20 -313 9z"/>
<path d="M4402 10491 c-128 -117 -314 -309 -384 -396 -81 -102 -269 -387 -266
-404 4 -20 55 -32 106 -25 40 6 50 15 203 193 89 102 207 237 262 300 56 63
103 121 103 130 1 9 2 22 3 30 1 11 4 11 16 1 18 -15 43 3 76 57 19 30 20 43
14 118 -6 63 -11 85 -21 85 -8 0 -58 -40 -112 -89z"/>
<path d="M2250 10344 c-47 -7 -116 -18 -155 -24 -38 -6 -74 -15 -79 -20 -14
-14 -45 -112 -46 -142 0 -18 8 -32 23 -41 12 -8 49 -31 82 -51 33 -21 96 -60
140 -87 44 -28 90 -54 102 -59 12 -5 48 -29 81 -55 34 -25 66 -44 73 -43 7 2
13 -4 14 -12 0 -8 16 -25 35 -38 50 -33 211 -157 288 -221 51 -43 68 -52 81
-44 25 16 25 70 -3 152 -13 42 -37 123 -52 181 -52 205 -141 347 -279 445
-107 77 -148 85 -305 59z"/>
<path d="M1902 10043 c-13 -23 11 -81 51 -129 24 -28 283 -212 405 -287 25
-16 106 -72 180 -125 203 -147 181 -137 225 -101 20 17 37 38 37 48 0 9 -15
31 -33 49 -69 67 -467 342 -757 523 -63 39 -96 46 -108 22z"/>
<path d="M1610 9624 c-14 -10 -75 -66 -136 -124 -138 -133 -198 -166 -329
-179 -123 -13 -140 -22 -165 -88 -22 -60 -37 -185 -26 -227 4 -15 38 -59 76
-100 78 -82 93 -115 110 -238 16 -117 79 -272 122 -302 12 -9 43 -16 67 -16
42 0 49 4 102 59 70 74 133 194 189 361 32 96 53 141 92 194 55 77 148 234
148 252 0 6 9 40 21 75 15 48 20 83 17 143 -3 78 -3 79 -46 116 -83 74 -193
108 -242 74z"/>
<path d="M3540 9539 c-104 -28 -132 -31 -290 -33 -147 -2 -184 -6 -230 -23
-81 -30 -131 -57 -180 -98 -41 -34 -187 -240 -231 -326 -32 -64 -35 -140 -10
-239 11 -46 21 -94 21 -106 0 -30 -17 -40 -25 -14 -13 42 -25 6 -25 -75 0 -52
4 -85 11 -87 6 -2 17 -39 25 -82 20 -117 37 -145 113 -183 67 -34 154 -115
226 -211 52 -69 97 -98 163 -105 68 -8 152 -53 236 -127 39 -35 81 -63 104
-69 20 -6 64 -17 97 -25 33 -8 69 -17 80 -21 15 -5 33 5 68 35 26 23 47 39 47
35 0 -3 -18 -30 -40 -60 -45 -62 -48 -83 -25 -190 8 -38 42 -207 75 -375 33
-168 65 -317 71 -332 25 -62 68 -42 115 55 30 63 34 81 34 153 0 118 -14 207
-76 484 -70 314 -64 295 -96 295 l-26 -1 19 28 c11 15 24 30 29 33 5 3 26 34
46 68 20 34 68 97 106 139 58 64 68 81 58 93 -25 30 40 155 80 155 43 0 89 97
60 126 -7 7 1 47 24 125 76 250 87 327 61 415 -15 51 -15 68 -4 135 l12 78
-29 43 c-47 69 -184 201 -251 241 -141 86 -248 97 -443 46z"/>
<path d="M5385 9340 c-22 -25 -37 -87 -129 -545 -42 -205 -86 -461 -101 -575
-14 -113 -32 -243 -40 -290 -44 -258 -107 -699 -112 -787 -7 -121 -2 -133 64
-133 35 0 50 6 72 28 25 24 29 39 40 137 6 61 28 209 47 329 34 214 43 277
104 692 16 110 34 223 40 250 6 27 22 112 36 189 26 147 63 314 95 427 10 36
19 81 19 100 0 53 -39 155 -67 178 -32 25 -45 25 -68 0z"/>
<path d="M2098 8986 c-9 -20 -4 -44 25 -133 35 -109 107 -407 172 -718 20 -93
63 -285 95 -425 32 -140 70 -320 84 -400 40 -220 52 -254 95 -284 74 -51 153
-70 179 -44 23 23 27 4 -114 583 -63 258 -130 491 -239 830 -40 127 -90 281
-110 344 -20 62 -54 149 -76 192 -36 72 -42 79 -69 79 -23 0 -33 -6 -42 -24z"/>
<path d="M4491 8183 c-25 -12 -40 -31 -58 -71 -29 -65 -70 -127 -132 -198 -80
-91 -181 -221 -207 -268 -15 -27 -31 -80 -39 -128 -7 -46 -18 -96 -24 -111
-16 -42 -13 -102 10 -218 25 -122 22 -185 -12 -233 -163 -231 -232 -361 -268
-505 -25 -101 -26 -144 -5 -165 23 -24 55 -20 135 19 86 41 125 44 274 19 112
-19 139 -16 185 22 56 48 65 76 63 202 -3 168 5 184 202 407 115 131 185 233
215 312 30 79 62 247 59 309 -2 38 2 56 15 69 12 12 15 26 11 44 -10 41 -180
381 -214 428 -54 75 -138 101 -210 66z"/>
<path d="M591 8061 c-9 -6 -12 -21 -8 -47 7 -51 106 -373 167 -544 132 -371
385 -1284 475 -1710 14 -69 55 -260 91 -424 36 -165 76 -370 89 -455 12 -86
34 -194 48 -241 14 -47 30 -121 37 -165 54 -365 154 -940 185 -1065 8 -30 23
-143 35 -250 36 -346 105 -813 210 -1440 20 -120 53 -411 70 -613 10 -117 29
-260 50 -367 6 -30 15 -133 20 -229 6 -95 13 -177 15 -181 3 -5 12 -73 21
-151 8 -79 20 -151 25 -161 9 -16 26 -18 154 -18 l145 0 0 26 c0 40 -39 388
-56 499 -9 55 -24 136 -35 180 -11 44 -33 174 -49 290 -58 411 -90 624 -104
692 -18 81 -28 157 -56 403 -34 300 -68 532 -110 752 -38 194 -75 421 -136
818 -28 188 -103 599 -140 770 -13 63 -38 186 -54 272 -101 531 -264 1183
-446 1786 -19 63 -50 177 -69 253 -41 163 -171 598 -214 714 -73 201 -205 468
-275 560 -44 57 -56 64 -85 46z"/>
<path d="M3259 7481 l-23 -19 12 -123 c16 -165 15 -310 -3 -387 -8 -35 -37
-111 -65 -169 -69 -147 -67 -198 18 -333 40 -63 47 -70 83 -70 34 0 50 20 93
113 26 57 55 100 105 153 106 114 133 190 96 277 -8 20 -15 47 -15 61 0 14
-25 73 -55 132 -39 77 -52 111 -44 120 13 15 -36 120 -62 135 -13 6 -19 21
-19 44 0 36 -19 61 -57 76 -33 12 -37 12 -64 -10z"/>
<path d="M2122 6950 c-121 -32 -142 -51 -216 -198 -46 -92 -81 -124 -216 -202
-61 -34 -115 -71 -121 -81 -22 -42 7 -82 121 -172 93 -73 101 -96 111 -322 9
-216 21 -260 79 -290 27 -14 38 -14 112 1 60 12 108 15 178 11 52 -4 142 -9
200 -13 136 -9 230 10 410 80 74 29 162 61 194 70 32 10 70 25 83 34 39 25 27
80 -43 202 -80 140 -140 204 -229 245 -67 32 -69 33 -34 34 62 2 125 -27 162
-72 71 -87 168 -248 238 -397 41 -85 114 -229 162 -320 129 -240 278 -556 330
-701 86 -236 115 -455 126 -947 6 -279 10 -335 23 -348 14 -14 17 -14 31 0 8
9 25 46 37 83 12 38 60 146 107 241 69 143 93 182 134 222 30 29 46 51 39 55
-5 3 -8 11 -5 16 9 14 25 11 25 -6 0 -21 27 -19 69 7 56 34 261 188 311 233
25 23 93 81 153 129 59 48 107 94 107 102 0 8 7 26 16 39 29 44 16 57 -71 77
-121 27 -141 25 -184 -20 -20 -21 -58 -69 -86 -107 -61 -85 -187 -219 -249
-263 -25 -18 -46 -31 -46 -27 0 3 36 49 81 103 86 103 219 296 219 316 0 20
-39 50 -122 95 -111 60 -121 77 -113 174 8 87 11 81 -98 232 -116 161 -153
182 -196 111 -25 -40 -102 -258 -126 -355 l-18 -75 -43 88 c-23 48 -47 93 -52
99 -5 7 -24 46 -41 87 -33 79 -169 331 -291 540 -108 184 -119 215 -126 362
-2 67 -7 142 -10 164 -10 81 -145 273 -316 450 -87 90 -109 106 -200 152 -130
66 -211 82 -395 81 -102 0 -157 -5 -211 -19z"/>
<path d="M5065 6924 c-59 -16 -80 -38 -89 -94 -12 -77 -68 -100 -146 -60 -72
37 -141 22 -195 -42 -25 -29 -27 -38 -22 -89 3 -31 2 -60 -2 -65 -3 -5 -36
-30 -73 -54 -76 -51 -86 -67 -124 -200 -19 -64 -24 -98 -17 -109 14 -22 120
-79 182 -97 87 -26 184 -75 209 -106 26 -31 39 -34 75 -17 23 10 57 66 57 92
0 8 18 43 40 80 22 36 40 73 40 83 0 17 29 72 108 203 38 64 43 77 33 94 -15
22 6 56 107 177 90 106 121 177 90 208 -17 17 -39 15 -68 -8 -26 -20 -60 -27
-60 -12 0 9 -69 33 -86 31 -5 -1 -31 -8 -59 -15z"/>
<path d="M7109 6880 c-238 -23 -448 -95 -604 -209 -27 -20 -120 -103 -205
-185 -182 -176 -244 -224 -337 -260 -115 -47 -155 -88 -169 -176 -6 -34 -16
-49 -62 -88 -122 -105 -142 -125 -151 -158 -14 -50 5 -109 50 -156 36 -38 41
-40 78 -34 l40 6 40 -67 c21 -38 50 -78 64 -91 23 -22 27 -22 59 -9 20 8 51
34 69 57 19 24 62 60 96 82 105 66 153 136 153 222 0 38 61 219 101 298 132
264 245 438 318 494 51 39 66 42 81 14 8 -16 7 -30 -8 -63 -18 -42 -44 -67
-132 -130 -89 -65 -140 -227 -90 -289 28 -36 85 -51 142 -39 24 6 95 29 158
52 63 22 151 47 194 55 128 23 153 43 219 176 54 108 97 240 97 299 0 16 9 43
20 61 23 38 26 96 6 123 -16 23 -94 28 -227 15z"/>
<path d="M3641 6837 c-6 -8 -17 -33 -25 -55 -18 -50 -61 -114 -124 -185 -24
-28 -56 -75 -69 -105 -13 -31 -39 -73 -58 -95 -48 -56 -52 -84 -19 -149 33
-64 62 -98 84 -98 9 0 43 23 74 50 31 28 64 50 72 50 8 0 34 20 59 44 50 51
81 133 91 247 4 38 10 69 15 69 4 0 12 15 18 33 9 27 8 41 -4 70 -8 20 -15 45
-15 56 0 26 -47 81 -70 81 -10 0 -23 -6 -29 -13z"/>
<path d="M5525 6767 c-21 -12 -63 -51 -92 -87 -36 -45 -59 -64 -72 -63 -11 2
-29 -9 -41 -24 -19 -25 -19 -27 -3 -45 15 -17 15 -20 -15 -56 -18 -20 -46 -57
-64 -82 -47 -67 -117 -140 -123 -129 -13 20 -32 6 -65 -48 -30 -49 -32 -57
-19 -66 14 -9 13 -15 -8 -53 -14 -24 -27 -68 -30 -97 -5 -52 -4 -55 28 -79 33
-25 125 -68 259 -123 98 -40 149 -31 262 47 128 87 203 177 144 172 -27 -3
-19 33 24 111 30 55 40 84 40 118 0 40 -55 230 -81 278 -6 11 -5 27 1 44 12
31 3 75 -15 75 -8 0 -11 8 -8 20 12 45 -27 110 -64 110 -10 0 -36 -10 -58 -23z"/>
<path d="M7594 6461 c-37 -22 -162 -192 -343 -465 -133 -199 -150 -227 -273
-441 -76 -131 -191 -369 -204 -419 -5 -20 -1 -35 15 -56 11 -16 21 -34 21 -40
0 -21 30 -69 50 -80 14 -8 26 -7 43 1 28 15 32 21 63 104 56 146 315 642 414
790 27 41 170 299 170 307 0 3 22 42 50 88 27 46 58 107 67 136 16 51 16 55
-2 74 -22 25 -32 25 -71 1z"/>
<path d="M3932 6270 c-67 -24 -111 -57 -194 -146 -149 -160 -154 -246 -27
-494 27 -53 66 -113 87 -133 43 -42 67 -47 163 -34 70 10 80 2 184 -135 83
-109 125 -186 125 -231 0 -84 109 -204 215 -236 70 -22 293 -46 426 -46 l85 0
145 72 c193 96 311 133 428 133 103 0 141 18 179 87 40 74 39 115 -7 250 -22
65 -41 125 -41 132 0 23 -61 91 -81 91 -30 0 -80 29 -114 65 -24 26 -41 34
-85 40 -30 4 -73 16 -94 27 -37 19 -41 19 -52 4 -10 -15 -15 -15 -45 -2 -19 7
-46 19 -62 25 -15 6 -26 16 -25 23 2 6 -8 14 -22 17 -14 4 -64 32 -112 64
-102 68 -157 93 -293 135 -117 37 -203 85 -289 163 -84 76 -114 95 -191 124
-85 32 -222 34 -303 5z m387 -1183 c1 -5 -3 -5 -9 -2 -5 3 -10 16 -9 28 0 21
1 21 9 2 5 -11 9 -24 9 -28z"/>
<path d="M3332 6103 c-17 -6 -42 -57 -42 -84 0 -23 75 -164 160 -299 73 -118
130 -222 219 -403 67 -139 84 -167 96 -157 22 18 45 99 45 158 0 51 -5 63
-103 220 -57 92 -139 230 -182 307 -107 193 -163 268 -193 258z"/>
<path d="M2855 5721 c-55 -10 -84 -27 -91 -55 -3 -13 12 -101 35 -197 45 -199
67 -310 81 -423 5 -43 30 -163 54 -265 62 -259 91 -413 121 -651 14 -113 32
-232 40 -265 8 -33 31 -150 50 -260 72 -409 83 -443 138 -418 25 12 38 41 118
256 29 76 29 80 15 130 -8 29 -19 96 -25 150 -6 64 -17 113 -31 140 -15 29
-24 76 -31 152 -6 61 -22 148 -35 195 -13 47 -40 173 -60 280 -19 107 -44 233
-54 280 -10 47 -24 124 -29 171 -6 47 -22 124 -36 172 -14 48 -41 169 -61 270
-41 215 -70 317 -92 335 -17 13 -43 14 -107 3z"/>
<path d="M6691 5598 c-102 -50 -184 -60 -273 -34 -79 23 -145 21 -188 -6 -19
-11 -54 -25 -78 -29 -52 -10 -113 -51 -200 -134 -71 -67 -76 -82 -89 -232 -4
-54 -2 -63 15 -72 12 -6 86 -11 174 -12 122 0 167 3 223 19 65 18 297 112 410
166 28 13 57 26 66 29 17 5 79 110 79 132 0 7 13 36 28 66 23 44 27 61 22 93
-4 21 -13 42 -21 47 -30 19 -86 8 -168 -33z"/>
<path d="M2621 5346 c-8 -9 -15 -97 -21 -248 -5 -128 -14 -311 -20 -406 -22
-321 -2 -3314 28 -4431 l7 -254 55 -4 c45 -3 59 0 72 14 21 24 108 435 108
508 0 32 -9 134 -20 228 -17 155 -29 376 -60 1167 -5 135 -12 625 -16 1090 -3
465 -10 861 -15 880 -9 33 -14 186 -39 1068 -6 206 -15 372 -21 383 -11 22
-42 25 -58 5z"/>
<path d="M6420 5035 c-118 -26 -160 -27 -355 -9 -58 5 -73 3 -84 -10 -24 -29
-3 -60 86 -126 110 -82 196 -161 234 -216 16 -23 29 -45 29 -48 0 -11 -27 -6
-59 10 -24 12 -30 19 -22 27 21 21 10 47 -35 82 -53 40 -83 45 -91 15 -3 -11
-7 -20 -8 -20 -2 0 -27 16 -57 35 -88 59 -244 135 -276 135 -47 0 -58 -21 -43
-88 6 -31 23 -127 36 -213 34 -225 56 -271 200 -434 39 -44 106 -125 150 -180
111 -142 133 -157 175 -115 19 19 20 29 14 103 -7 91 4 115 48 103 50 -12 53
-31 53 -311 0 -143 1 -266 3 -272 5 -29 59 -12 134 42 60 43 81 65 98 103 40
88 53 107 104 160 28 29 90 85 139 124 134 109 179 195 199 381 15 142 9 158
-123 333 -101 134 -169 245 -169 276 0 30 -44 100 -73 114 -53 28 -176 27
-307 -1z"/>
<path d="M5502 4904 c-107 -23 -118 -35 -132 -142 -16 -126 -39 -255 -54 -301
-9 -25 -20 -85 -26 -133 -6 -48 -17 -104 -24 -126 -8 -22 -21 -111 -30 -198
-9 -88 -20 -179 -26 -204 -5 -25 -14 -96 -20 -159 -6 -63 -28 -183 -50 -270
-22 -86 -49 -221 -60 -300 -12 -80 -39 -251 -62 -380 -32 -191 -44 -238 -59
-249 -13 -9 -19 -25 -19 -53 0 -22 -5 -50 -12 -62 -7 -13 -12 -65 -13 -122 -1
-138 -39 -426 -59 -457 -9 -14 -14 -32 -10 -41 3 -9 2 -22 -3 -29 -4 -7 -9
-53 -10 -103 -1 -49 -13 -164 -27 -255 -66 -435 -86 -575 -96 -675 -5 -49 -12
-107 -16 -128 -4 -24 -2 -43 6 -52 10 -12 9 -23 -3 -53 -10 -24 -13 -54 -10
-85 5 -39 2 -54 -14 -76 -13 -17 -23 -51 -27 -91 -4 -36 -12 -75 -19 -88 -25
-52 22 -68 211 -71 52 -1 72 2 72 12 0 28 80 900 94 1027 43 382 77 664 90
745 8 50 18 117 21 150 4 33 26 182 50 330 24 149 55 362 70 475 14 113 35
250 46 305 11 55 25 134 30 175 6 41 21 127 34 190 14 63 36 181 50 261 40
235 93 489 115 553 12 33 25 106 30 170 13 147 15 161 57 285 44 130 48 194
14 222 -27 22 -25 22 -109 3z"/>
<path d="M4760 4507 c-46 -30 -66 -68 -84 -157 -16 -79 -61 -412 -72 -542 -4
-48 -12 -82 -21 -90 -11 -9 -13 -30 -7 -102 6 -83 3 -103 -29 -231 -48 -186
-52 -212 -37 -230 10 -11 9 -18 -5 -31 -11 -12 -15 -26 -11 -46 3 -15 0 -39
-6 -53 -9 -21 -8 -28 7 -45 18 -20 18 -23 1 -83 -21 -72 -40 -241 -38 -342 1
-38 -7 -135 -18 -215 -11 -80 -24 -212 -29 -295 -6 -82 -15 -175 -22 -205 -13
-63 -23 -247 -38 -670 -6 -162 -17 -348 -26 -412 -11 -83 -15 -209 -15 -439
l0 -322 61 7 c34 3 83 6 109 6 l46 0 12 268 c6 147 16 308 22 357 5 50 14 209
20 355 16 421 81 1295 150 2015 17 171 34 382 40 470 21 347 60 756 86 913 14
85 14 95 0 118 -21 30 -53 31 -96 1z"/>
<path d="M4074 3940 c-32 -13 -73 -67 -80 -108 -4 -20 -2 -190 5 -377 20 -560
24 -1013 12 -1280 -5 -137 -15 -369 -21 -515 -6 -146 -15 -314 -21 -375 -14
-152 2 -1250 18 -1266 18 -18 199 -25 219 -8 16 13 17 59 10 589 -4 316 -11
937 -15 1380 -5 443 -11 812 -14 820 -9 22 -40 759 -34 797 3 18 2 99 -3 180
-7 122 -12 150 -26 160 -20 15 -21 15 -50 3z"/>
<path d="M3612 3837 c-11 -12 -25 -43 -31 -68 -6 -26 -15 -59 -21 -74 -6 -15
-33 -100 -60 -189 -58 -191 -123 -363 -156 -411 -44 -65 -104 -299 -104 -406
0 -27 -7 -111 -15 -186 -53 -511 -56 -569 -29 -580 19 -7 44 6 55 28 4 8 38
95 75 194 36 99 99 248 140 331 123 255 228 510 265 649 24 88 26 267 5 415
-9 58 -16 123 -16 146 0 51 -25 138 -46 159 -21 21 -37 19 -62 -8z"/>
<path d="M6105 3796 c-26 -26 -67 -149 -86 -261 -7 -38 -18 -82 -25 -96 -7
-14 -22 -63 -34 -108 -11 -45 -25 -90 -30 -99 -9 -18 -66 -242 -105 -417 -14
-60 -30 -123 -37 -138 -6 -16 -12 -54 -13 -85 -3 -87 -22 -186 -60 -312 -19
-63 -44 -164 -55 -225 -48 -253 -160 -744 -199 -869 -10 -34 -22 -89 -25 -121
-7 -61 -43 -237 -96 -465 -16 -69 -32 -150 -35 -180 -11 -92 -45 -281 -57
-322 -17 -57 -1 -85 54 -92 63 -8 186 -2 196 9 5 6 15 57 21 115 7 58 26 177
42 265 16 88 50 279 75 425 85 497 184 966 319 1505 90 361 242 987 249 1030
4 22 25 99 47 171 21 71 39 138 39 148 0 9 -18 36 -40 58 -22 23 -40 46 -40
50 0 9 -54 38 -70 38 -6 0 -22 -11 -35 -24z"/>
<path d="M3850 2774 c-6 -14 -10 -42 -10 -62 0 -53 -45 -491 -75 -729 -14
-112 -41 -278 -60 -370 -19 -93 -40 -217 -46 -278 -6 -60 -19 -195 -30 -300
-11 -104 -25 -305 -30 -445 -6 -140 -13 -295 -17 -345 -7 -84 -8 -89 -32 -95
-33 -8 -36 -60 -4 -74 11 -5 25 -21 31 -36 12 -31 52 -40 183 -40 l78 0 6 273
c3 149 8 454 12 677 8 563 20 861 45 1100 26 238 32 674 11 723 -15 35 -49 36
-62 1z"/>
<path d="M3638 2713 c-9 -10 -21 -34 -26 -53 -6 -19 -48 -121 -94 -226 -175
-394 -327 -833 -429 -1239 -22 -88 -60 -227 -84 -310 -43 -147 -81 -316 -125
-562 -19 -106 -25 -123 -41 -123 -32 0 -66 -90 -50 -133 5 -13 24 -33 43 -44
28 -16 48 -19 139 -15 l105 4 12 111 c18 165 56 381 118 662 30 138 66 308 80
378 46 242 128 521 233 794 121 313 142 385 171 573 17 112 20 151 11 173 -12
31 -40 36 -63 10z"/>
<path d="M3612 2047 c-6 -7 -20 -33 -32 -57 -12 -25 -30 -61 -41 -80 -22 -38
-22 -83 0 -219 17 -103 25 -121 56 -121 34 0 50 29 71 130 22 102 25 303 6
338 -14 24 -44 29 -60 9z"/>
</g>
</svg>
